# AST/ASF file generated using VICON BodyLanguage
# -----------------------------------------------
:version 1.10
:name VICON
:units
  mass 1.0
  length 0.45
  angle deg
:documentation
   .ast/.asf automatically generated from VICON data using
   VICON BodyBuilder and BodyLanguage model FoxedUp or BRILLIANT.MOD
:root
   order TX TY TZ RX RY RZ
   axis XYZ
   position 0 0 0  
   orientation 0 0 0 
:bonedata
  begin
     id 1 
     name lhipjoint
     direction 0.578396 -0.714046 0.394458 
     length 2.21935 
     axis 0 0 0  XYZ
  end
  begin
     id 2 
     name lfemur
     direction 0.34202 -0.939693 0  
     length 6.39105  
     axis 0 0 20  XYZ
    dof rx ry rz
    limits (-160.0 20.0)
           (-70.0 70.0)
           (-60.0 70.0)
  end
  begin
     id 3 
     name ltibia
     direction 0.34202 -0.939693 0   
     length 6.99037   
     axis 0 0 20   XYZ
    dof rx
    limits (-10.0 170.0)
  end
  begin
     id 4 
     name lfoot
     direction 0.0582372 -0.160005 0.985397   
     length 2.06111   
     axis -90 7.62852e-016 20   XYZ
    dof rx rz
    limits (-45.0 90.0)
           (-70.0 20.0)
  end
  begin
     id 5 
     name ltoes
     direction 1.53556e-011 -4.21875e-011 1   
     length 1.04074   
     axis -90 7.62852e-016 20   XYZ
    dof rx
    limits (-90.0 20.0)
  end
  begin
     id 6 
     name rhipjoint
     direction -0.558179 -0.726269 0.40121   
     length 2.182  
     axis 0 0 0  XYZ 
  end
  begin
     id 7 
     name rfemur
     direction -0.34202 -0.939693 0   
     length 6.51172   
     axis 0 0 -20   XYZ
    dof rx ry rz
    limits (-160.0 20.0)
           (-70.0 70.0)
           (-70.0 60.0)
  end
  begin
     id 8 
     name rtibia
     direction -0.34202 -0.939693 0   
     length 7.02607   
     axis 0 0 -20   XYZ
    dof rx
    limits (-10.0 170.0)
 end
 begin
     id 9 
     name rfoot
     direction -0.0788856 -0.216737 0.973038   
     length 1.96734  
     axis -90 -7.62852e-016 -20   XYZ
    dof rx rz
    limits (-45.0 90.0)
           (-20.0 70.0)
  end
  begin
     id 10 
     name rtoes
     direction -1.53567e-011 -4.21783e-011 1   
     length 0.990825   
     axis -90 -7.62852e-016 -20   XYZ
    dof rx
    limits (-90.0 20.0)
  end
  begin
     id 11 
     name lowerback
     direction 0.00668177 0.999323 -0.0361741   
     length 1.7655   
     axis 0 0 0   XYZ
    dof rx ry rz
    limits (-20.0 45.0)
           (-30.0 30.0)
           (-30.0 30.0)
  end
  begin
     id 12 
     name upperback
     direction -0.00222086 0.99851 0.0545167   
     length 1.74912   
     axis 0 0 0   XYZ
    dof rx ry rz
    limits (-20.0 45.0)
           (-30.0 30.0)
           (-30.0 30.0)
  end
  begin
     id 13 
     name thorax
     direction -0.00733971 0.997496 0.0703443   
     length 1.75715   
     axis 0 0 0   XYZ
    dof rx ry rz
    limits (-20.0 45.0)
           (-30.0 30.0)
           (-30.0 30.0)
  end
  begin
     id 14 
     name lowerneck
     direction 0.0279797 0.994795 0.0979765   
     length 1.46939   
     axis 0 0 0   XYZ
    dof rx ry rz
    limits (-20.0 45.0)
           (-30.0 30.0)
           (-30.0 30.0)
  end
  begin
     id 15 
     name upperneck
     direction 0.00339187 0.976776 -0.214238   
     length 1.48018   
     axis 0 0 0   XYZ
    dof rx ry rz
    limits (-20.0 45.0)
           (-30.0 30.0)
           (-30.0 30.0)
  end
  begin
     id 16
     name head
     direction -0.00263506 0.996603 -0.0823096  
     length 1.4976  
     axis 0 0 0   XYZ
    dof rx ry rz
    limits (-20.0 45.0)
           (-30.0 30.0)
           (-30.0 30.0)
  end
  begin
     id 17 
     name lclavicle
     direction 0.894044 0.44508 -0.0508781  
     length 3.03024  
     axis 0 0 0   XYZ
    dof ry rz
    limits (-20.0 10.0)
           (0.0 20.0)
  end
  begin
     id 18 
     name lhumerus
     direction 1 -4.48961e-011 -2.39475e-018   
     length 4.4661   
     axis 180 -30 -90   XYZ
    dof rx ry rz
    limits (-60.0 90.0)
           (-90.0 90.0)
           (-90.0 90.0)
  end
  begin
     id 19
     name lradius
     direction 1 -4.48961e-011 9.29328e-028   
     length 3.41414   
     axis 180 -30 -90   XYZ
    dof rx
    limits (-10.0 170.0)
  end
  begin
     id 20
     name lwrist
     direction 1 -4.48985e-011 1.53461e-026   
     length 1.70707   
     axis -1.09697e-014 90 90   XYZ
    dof ry
    limits (-180.0 0.0)
 end
  begin
     id 21 
     name lhand
     direction 1 -4.48966e-011 3.06923e-026   
     length 0.328298   
     axis -1.95843e-014 90 90   XYZ
    dof rx rz
    limits (-90.0 90.0)
           (-45.0 45.0)
  end
  begin
     id 22 
     name lfingers
     direction 1 -4.48893e-011 6.13845e-026   
     length 0.264682   
     axis -3.91686e-014 90 90   XYZ
    dof rx
    limits (0.0 90.0)
  end
  begin
     id 23
     name lthumb
     direction 0.707107 -6.34876e-011 0.707107   
     length 0.380032   
     axis -90 45 2.85299e-015   XYZ
    dof rx rz
    limits (-45.0 45.0)
           (-45.0 45.0)
  end
  begin
     id 24 
     name rclavicle
     direction -0.936955 0.347862 -0.0332887   
     length 3.26927  
     axis 0 0 0   XYZ 
    dof ry rz
    limits (-10.0 20.0)
           (-20.0 0.0)
  end
  begin
     id 25 
     name rhumerus
     direction -1 -4.4896e-011 1.78637e-018  
     length 4.40431   
     axis 180 30 90   XYZ
    dof rx ry rz
    limits (-90.0 60.0)
           (-90.0 90.0)
           (-90.0 90.0)
  end
  begin
     id 26 
     name rradius
     direction -1 -4.48955e-011 9.34036e-027   
     length 3.04688   
     axis 180 30 90   XYZ
    dof rx
    limits (-10.0 170.0)
  end
  begin
     id 27 
     name rwrist
     direction -1 -4.49011e-011 1.53461e-026   
     length 1.52344   
     axis -1.09697e-014 -90 -90   XYZ
    dof ry
    limits (-180.0 0.0)
  end
  begin
     id 28
     name rhand
     direction -1 -4.48834e-011 3.06923e-026   
     length 0.500489   
     axis -1.95843e-014 -90 -90   XYZ
    dof rx rz
    limits (-90.0 90.0)
           (-45.0 45.0)
  end
  begin
     id 29
     name rfingers
     direction -1 -4.48967e-011 6.13845e-026   
     length 0.403507   
     axis -3.91686e-014 -90 -90   XYZ
    dof rx
    limits (0.0 90.0)
  end
  begin
     id 30
     name rthumb
     direction -0.707107 -6.34826e-011 0.707107   
     length 0.579358   
     axis -90 -45 -2.85299e-015   XYZ
    dof rx rz
    limits (-45.0 45.0)
           (-45.0 45.0)
  end
:hierarchy
  begin
    root lhipjoint rhipjoint lowerback
    lhipjoint lfemur
    lfemur ltibia
    ltibia lfoot
    lfoot ltoes
    rhipjoint rfemur
    rfemur rtibia
    rtibia rfoot
    rfoot rtoes
    lowerback upperback
    upperback thorax
    thorax lowerneck lclavicle rclavicle
    lowerneck upperneck
    upperneck head
    lclavicle lhumerus
    lhumerus lradius
    lradius lwrist
    lwrist lhand lthumb
    lhand lfingers
    rclavicle rhumerus
    rhumerus rradius
    rradius rwrist
    rwrist rhand rthumb
    rhand rfingers
  end

#!OML:ASF H:\IndianDance\Patient Classification 1\Patient 1\Session 1\dancer.ASF
:FULLY-SPECIFIED
:DEGREES
1
root 2.9587 12.7416 10.7708 -175.461 1.14929 -178.289
lowerback 6.04923 2.11997 1.15466
upperback -6.4841 3.29031 0.162406
thorax -10.2494 1.63387 -0.980291
lowerneck -19.8598 1.84884 0.765081
upperneck 20.6026 -0.108584 7.86213
head 9.8589 0.754276 2.59163
rclavicle -4.08813e-014 -1.28216e-014
rhumerus -12.481 32.6423 -8.33888
rradius 36.5959
rwrist -9.68119
rhand -3.3858 14.5382
rfingers 7.12502
rthumb 22.3437 -14.1898
lclavicle -4.08813e-014 -1.28216e-014
lhumerus -3.70024 -36.2487 -1.33033
lradius 35.7181
lwrist 18.0277
lhand -5.20362 -0.90762
lfingers 7.12502
lthumb 20.5978 28.0195
rfemur -44.5878 -40.0521 21.4581
rtibia 84.806
rfoot -36.586 0.416508
rtoes 7.79544
lfemur -40.399 41.157 -13.4985
ltibia 82.757
lfoot -34.2994 1.86248
ltoes -0.949657
2
root 2.95712 12.7492 10.7693 -175.489 1.05013 -178.294
lowerback 6.01871 2.0905 1.16717
upperback -6.48164 3.25433 0.185255
thorax -10.2297 1.6173 -0.956164
lowerneck -19.8309 1.83082 0.715221
upperneck 20.6112 -0.12861 7.89755
head 9.85723 0.743918 2.60923
rclavicle -2.64446e-014 -7.20594e-015
rhumerus -12.4397 32.6741 -8.33757
rradius 36.5625
rwrist -9.56583
rhand -3.43087 14.5088
rfingers 7.12502
rthumb 22.3004 -14.2244
lclavicle -2.64446e-014 -7.20594e-015
lhumerus -3.69131 -36.2406 -1.30307
lradius 35.7576
lwrist 18.0339
lhand -5.13151 -0.888254
lfingers 7.12502
lthumb 20.667 28.0314
rfemur -44.4461 -40.0089 21.3983
rtibia 84.6869
rfoot -36.5704 0.354031
rtoes 8.22668
lfemur -40.319 41.0415 -13.5012
ltibia 82.6409
lfoot -34.2498 1.93631
ltoes -1.16407
3
root 2.95583 12.7576 10.7682 -175.51 0.915961 -178.337
lowerback 5.99715 2.05411 1.18758
upperback -6.49099 3.20887 0.183259
thorax -10.2269 1.59451 -0.962438
lowerneck -19.7983 1.7931 0.640213
upperneck 20.6358 -0.16532 7.91837
head 9.86098 0.722409 2.62387
rclavicle -2.75814e-015 -1.54058e-015
rhumerus -12.4209 32.6906 -8.33403
rradius 36.5211
rwrist -9.41507
rhand -3.51164 14.5608
rfingers 7.12502
rthumb 22.2229 -14.1816
lclavicle -2.75814e-015 -1.54058e-015
lhumerus -3.68388 -36.2229 -1.26241
lradius 35.8176
lwrist 18.0849
lhand -5.11046 -0.917742
lfingers 7.12502
lthumb 20.6873 27.9997
rfemur -44.3175 -39.9811 21.3015
rtibia 84.5756
rfoot -36.5724 0.268981
rtoes 8.32661
lfemur -40.2571 40.874 -13.5523
ltibia 82.5319
lfoot -34.2161 1.82584
ltoes -0.882577
4
root 2.95409 12.7639 10.7671 -175.537 0.767496 -178.36
lowerback 5.97628 2.0142 1.23864
upperback -6.49004 3.16072 0.181681
thorax -10.2115 1.56791 -0.984612
lowerneck -19.7933 1.75398 0.58854
upperneck 20.6729 -0.207481 7.91814
head 9.87464 0.69877 2.62724
rclavicle -6.67171e-015 -3.08116e-015
rhumerus -12.4203 32.6706 -8.35047
rradius 36.4886
rwrist -9.25609
rhand -3.57018 14.5625
rfingers 7.12502
rthumb 22.1667 -14.1866
lclavicle -6.67171e-015 -3.08116e-015
lhumerus -3.67901 -36.1545 -1.20986
lradius 35.8628
lwrist 18.146
lhand -5.13353 -0.926028
lfingers 7.12502
lthumb 20.6651 27.9938
rfemur -44.1888 -39.9878 21.2242
rtibia 84.473
rfoot -36.5736 0.24442
rtoes 8.58447
lfemur -40.217 40.7189 -13.5867
ltibia 82.4391
lfoot -34.1704 1.84966
ltoes -0.992554
5
root 2.95249 12.7703 10.7657 -175.564 0.672315 -178.403
lowerback 5.95753 2.0239 1.25514
upperback -6.49058 3.17339 0.155287
thorax -10.1981 1.57208 -1.02289
lowerneck -19.7546 1.69944 0.577029
upperneck 20.6474 -0.277701 7.91897
head 9.86154 0.663736 2.61825
rclavicle -6.14369e-015 -2.93207e-015
rhumerus -12.5289 32.6235 -8.39743
rradius 36.4425
rwrist -9.1697
rhand -3.5943 14.6092
rfingers 7.12502
rthumb 22.1435 -14.1426
lclavicle -6.14369e-015 -2.93207e-015
lhumerus -3.54529 -36.1154 -1.2154
lradius 35.9087
lwrist 18.2655
lhand -5.23153 -0.928626
lfingers 7.12502
lthumb 20.5709 28.0014
rfemur -44.0752 -39.9744 21.1439
rtibia 84.3705
rfoot -36.5944 0.120438
rtoes 8.58528
lfemur -40.142 40.595 -13.634
ltibia 82.3385
lfoot -34.1601 1.82625
ltoes -0.91772
6
root 2.95104 12.777 10.7644 -175.591 0.567494 -178.429
lowerback 5.93803 2.01035 1.27757
upperback -6.49038 3.15757 0.151962
thorax -10.1852 1.56314 -1.03576
lowerneck -19.7315 1.66158 0.54732
upperneck 20.6515 -0.321222 7.91803
head 9.86047 0.640352 2.61644
rclavicle -6.05672e-015 2.23633e-015
rhumerus -12.5587 32.6097 -8.41142
rradius 36.4101
rwrist -9.07886
rhand -3.62663 14.6164
rfingers 7.12502
rthumb 22.1125 -14.1392
lclavicle -6.05672e-015 2.23633e-015
lhumerus -3.49211 -36.0823 -1.19227
lradius 35.9587
lwrist 18.3393
lhand -5.26276 -0.939081
lfingers 7.12502
lthumb 20.5409 27.9942
rfemur -43.9519 -39.9495 21.073
rtibia 84.268
rfoot -36.6074 0.0365727
rtoes 8.75722
lfemur -40.0736 40.4782 -13.6599
ltibia 82.243
lfoot -34.1381 1.79108
ltoes -0.853444
7
root 2.9496 12.7834 10.7631 -175.617 0.473108 -178.453
lowerback 5.92061 2.0003 1.29924
upperback -6.49032 3.1465 0.14996
thorax -10.1737 1.55657 -1.04759
lowerneck -19.7023 1.62634 0.525873
upperneck 20.6469 -0.361225 7.91208
head 9.85501 0.618502 2.61167
rclavicle 1.24799e-014 3.97569e-015
rhumerus -12.5865 32.5983 -8.42229
rradius 36.381
rwrist -9.00812
rhand -3.64885 14.6147
rfingers 7.12502
rthumb 22.0911 -14.1434
lclavicle 1.24799e-014 3.97569e-015
lhumerus -3.43864 -36.058 -1.17456
lradius 36.0098
lwrist 18.4107
lhand -5.29158 -0.949541
lfingers 7.12502
lthumb 20.5132 27.9867
rfemur -43.832 -39.9185 21.0075
rtibia 84.1674
rfoot -36.6212 -0.0469429
rtoes 8.92334
lfemur -40.0034 40.3785 -13.6799
ltibia 82.149
lfoot -34.1181 1.74365
ltoes -0.766982
